PathFileType	4	(X/Y/Z)	C:/ViconProjects/foot_20160225/trc/2_test02_dynamic.trc
DataRate	CameraRate	NumFrames	NumMarkers	Units	OrigDataRate	OrigDataStartFrame	OrigNumFrames
120.000000	120.000000	7	39	mm	120.000000	204	406
Frame#	Time	LFWT			RFWT			VBWT			LKNE			LANK			LMT5			LMT1			LHEL			LTOE			RKNE			RANK			RMT5			RMT1			RHEL			RTOE			T10			FHEAD			THEAD			RHEAD			LBSH			LELB			LOWR			RBSH			RELB			ROWR			LTHI			RTHI			LSHAN			RSHAN			LIHEL			LOHEL			RIHEL			ROHEL			LMT3			LNAVI			LCUNE			RMT3			RNAVI			RCUNE			
		X0	Y0	Z0	X1	Y1	Z1	X2	Y2	Z2	X3	Y3	Z3	X4	Y4	Z4	X5	Y5	Z5	X6	Y6	Z6	X7	Y7	Z7	X8	Y8	Z8	X9	Y9	Z9	X10	Y10	Z10	X11	Y11	Z11	X12	Y12	Z12	X13	Y13	Z13	X14	Y14	Z14	X15	Y15	Z15	X16	Y16	Z16	X17	Y17	Z17	X18	Y18	Z18	X19	Y19	Z19	X20	Y20	Z20	X21	Y21	Z21	X22	Y22	Z22	X23	Y23	Z23	X24	Y24	Z24	X25	Y25	Z25	X26	Y26	Z26	X27	Y27	Z27	X28	Y28	Z28	X29	Y29	Z29	X30	Y30	Z30	X31	Y31	Z31	X32	Y32	Z32	X33	Y33	Z33	X34	Y34	Z34	X35	Y35	Z35	X36	Y36	Z36	X37	Y37	Z37	X38	Y38	Z38	
204	1.700000	-277.856628	41.344959	935.161926	-248.332916	324.997131	909.843018	-39.604511	151.363434	920.239563	-345.266449	39.464031	466.013367	-306.480804	64.847954	60.091610	-403.649567	46.515949	36.442070	-453.894928	120.280800	43.336140	-236.565994	118.305199	42.155430	-489.746613	112.226646	33.168999	-123.747437	357.623230	433.104797	210.691788	340.706390	213.492783	230.703430	347.241943	89.037300	187.015182	276.609070	64.573273	240.566437	273.320953	265.113312	179.051712	296.733307	30.521860	-56.992241	122.301643	1252.959717	-387.162354	194.572708	1592.441162	-289.182831	201.667740	1691.300293	-172.106689	196.932632	1638.809937	-210.261200	-22.030930	1395.038696	-121.747520	-144.746552	1099.894897	-161.827362	-192.926437	849.693298	-201.552231	384.631561	1392.118286	-168.875824	514.127136	1082.139893	-351.227875	523.840027	895.210876	-383.091064	89.094162	642.715454	-239.160812	315.046814	521.403259	-359.166962	123.629440	327.932831	37.901241	282.212097	266.725128	-271.933868	153.163025	42.502441	-267.143433	81.029968	40.089249	221.445786	244.894119	226.804871	244.814804	317.048706	234.456085	-444.958344	80.726318	39.339951	-355.947784	157.952621	48.320290	-340.929230	56.857738	31.645321	204.227890	311.529785	64.117119	188.037628	252.286346	160.641403	238.869476	341.991760	155.500214
205	1.708333	-289.563721	39.691269	936.710999	-260.184998	323.882080	912.212646	-51.068569	150.869995	921.837341	-348.960449	38.410339	465.278687	-306.208893	64.868843	60.037590	-403.587860	46.321560	36.285450	-453.950256	120.474693	43.204620	-236.577316	118.295372	42.209579	-489.918457	112.212189	33.063629	-148.652054	357.523254	434.100647	190.325623	339.117340	218.389313	214.584274	347.795166	96.972076	171.108109	281.092743	68.627769	215.893173	270.162384	271.746368	166.144485	305.183472	36.977249	-69.965889	121.176064	1254.957764	-399.338623	193.344345	1594.963501	-301.410675	200.648544	1693.315674	-183.635712	196.581711	1640.734131	-224.073212	-22.906389	1397.271606	-138.662811	-145.401413	1100.160278	-184.689590	-191.758911	850.913147	-212.999252	383.867767	1394.347412	-176.613739	511.081329	1083.593506	-354.549896	521.452637	892.208618	-389.643341	88.588249	642.108398	-260.429596	313.260040	524.394409	-362.028229	122.541252	327.121735	15.993820	280.990417	269.568359	-272.002136	153.190659	42.544769	-267.107758	81.089302	40.204559	197.922638	242.595612	231.982788	222.296265	314.240326	241.890961	-445.100189	80.623016	39.041191	-356.072235	157.859238	48.180901	-340.762299	56.860920	31.566410	188.089783	314.399200	70.586594	168.217453	251.209290	164.832367	219.702530	340.607330	163.415436
206	1.716667	-300.817047	38.681221	938.347656	-271.631073	323.178070	914.719299	-62.455200	150.292755	923.861816	-352.637573	37.752998	465.067108	-306.099213	64.884819	59.939850	-403.529480	46.215889	36.228069	-453.978424	120.427437	43.175880	-236.804901	118.496147	42.375420	-489.944458	112.153526	32.993229	-172.905731	357.403687	435.398773	168.430267	336.722321	224.560501	195.464554	349.639893	104.106537	149.947327	283.351685	73.285873	192.272232	266.629120	276.580627	144.567505	306.846466	41.710861	-81.598297	119.262329	1257.424072	-411.290863	192.566895	1596.904541	-313.176117	199.738312	1695.652710	-195.530228	195.229736	1642.878174	-237.715088	-23.403940	1399.259277	-155.913284	-146.176147	1100.856201	-207.504761	-190.830200	851.807251	-224.188416	383.220764	1396.413818	-184.693817	508.768951	1085.197388	-357.365479	518.872131	889.404846	-396.090210	88.246643	641.222473	-281.076324	311.735657	527.847046	-365.660065	121.699677	326.528259	-7.490750	279.369965	272.735046	-272.010681	153.186295	42.677479	-267.022430	81.052307	40.345509	175.317093	239.454666	236.772659	198.994751	310.705627	248.479156	-445.113495	80.565132	38.855659	-356.125000	157.823074	48.040352	-340.651001	56.897869	31.448959	167.439224	316.568054	76.303589	145.344208	251.034378	168.455109	198.751572	339.450684	170.644806
207	1.725000	-311.869080	37.448589	939.675354	-283.162933	322.571136	917.531494	-72.773216	149.634476	925.657104	-356.570679	37.104912	464.617310	-305.412079	64.534363	59.881969	-403.488007	46.011581	36.118389	-453.456818	120.177757	42.717571	-236.755051	118.448380	42.493229	-489.973022	112.137581	32.962978	-196.563110	357.285156	437.709045	146.645767	334.356110	230.518448	171.282028	351.243164	110.730743	125.361473	284.864441	77.399208	171.476746	261.524353	279.514404	119.012299	307.406433	45.486912	-93.882301	117.322632	1260.209473	-423.145813	191.511536	1599.239258	-325.135010	198.704239	1697.869995	-207.937927	194.967453	1644.891357	-251.661835	-24.067150	1401.341309	-173.642776	-146.988968	1101.335693	-231.345306	-189.197906	853.653076	-234.735352	382.905670	1398.520996	-191.849228	506.278839	1086.785156	-360.341064	516.517944	886.458679	-403.251221	88.230087	640.372314	-302.329803	310.571777	531.731323	-368.839905	120.803993	325.714264	-30.173950	277.432037	276.542755	-271.912170	152.994598	42.775600	-266.990845	81.047783	40.319710	152.969788	236.828110	239.344330	177.379303	307.407990	252.827698	-445.197998	80.575127	38.729500	-356.195709	157.696503	47.961231	-340.584137	56.877319	31.410749	142.029388	317.754822	81.215874	122.590607	249.244293	171.679901	174.896591	338.265411	176.595810
208	1.733333	-322.737640	36.793800	941.206665	-294.869110	321.804352	919.827026	-84.237190	149.065308	927.602905	-360.645172	36.704151	464.384583	-305.518555	64.418663	59.896439	-403.505463	45.877800	36.034389	-452.931885	119.998528	42.272091	-236.664703	118.384193	42.623638	-490.076447	112.061890	32.925388	-220.526627	357.373810	440.376068	124.051720	332.738586	236.793472	141.979004	351.528473	115.135971	97.080116	285.353027	81.403236	150.897232	258.379364	280.717560	91.755783	309.839539	48.442108	-105.716141	115.707336	1262.386963	-435.395172	190.227890	1601.206421	-337.009857	197.921661	1699.865845	-219.491898	194.130463	1647.361450	-264.683228	-24.586630	1403.450806	-191.074722	-147.411865	1102.141235	-255.349777	-187.637177	855.349854	-245.844467	382.047180	1400.684937	-199.698059	504.065216	1088.559082	-363.042358	513.834290	883.761536	-409.817200	88.140213	639.674866	-322.930878	309.173950	535.677490	-371.045197	119.963318	325.316681	-53.182499	275.585022	279.430145	-271.758759	152.725143	42.905251	-267.926422	81.008308	39.551628	130.812164	234.297012	241.148743	156.235947	304.973511	255.301514	-445.179504	80.512947	38.611679	-356.144318	157.613373	47.874290	-340.504089	56.846561	31.334620	114.118233	318.720032	85.061562	98.601219	247.528244	174.815674	148.686890	337.305237	180.645645
209	1.741667	-333.809174	36.084599	942.744385	-305.746521	321.188385	922.113220	-96.036209	149.094742	929.792053	-364.348389	36.521481	463.653473	-305.564392	64.270203	59.994041	-403.480713	45.712551	35.926418	-453.504913	120.226700	42.648281	-236.631500	118.234383	42.802158	-490.222473	112.072594	32.893761	-242.762833	356.523651	443.030334	100.036087	329.595978	240.155334	113.314468	351.607269	117.568932	67.339607	286.293915	84.370567	130.472870	255.496140	281.495911	62.232170	311.766205	50.740971	-117.497032	113.490753	1265.059082	-447.044617	189.243088	1602.966675	-348.866547	196.978928	1701.913452	-231.052750	193.845581	1649.398926	-277.867432	-25.068239	1405.422485	-209.089859	-148.414703	1102.601074	-279.495392	-185.609985	857.727173	-256.332336	381.768280	1402.442993	-206.963654	501.565369	1090.008179	-365.119934	511.261108	881.073669	-416.102478	88.483337	638.750854	-343.490997	308.503357	540.319214	-373.439911	119.853828	325.054047	-77.690376	274.556366	282.810974	-271.785339	152.447784	43.058731	-267.913635	80.905273	39.637840	108.570282	232.086578	242.361389	132.827560	302.994598	257.042084	-445.231812	80.534111	38.526440	-356.190460	157.538910	47.829380	-340.552307	56.720181	31.324190	85.377518	319.279877	87.730927	73.419456	245.850967	177.270233	121.819344	336.456055	182.574539
210	1.750000	-344.428925	35.524132	944.075684	-317.578644	320.383331	924.535400	-106.576653	148.675385	931.924194	-368.074463	36.289299	463.576721	-305.711548	64.035622	60.145020	-403.543823	45.484451	35.794159	-453.598267	120.198410	42.626270	-236.617264	118.012398	43.367100	-490.383911	111.874268	32.844109	-265.517395	356.891266	446.219666	74.666199	327.640167	242.572510	81.422668	351.682404	118.547279	37.889870	286.538300	85.945930	108.800247	253.295349	280.633850	28.826521	312.451691	53.407520	-129.331909	111.394707	1267.830811	-458.679138	188.505219	1604.956665	-360.633881	196.345978	1703.745361	-242.952835	193.282257	1651.422607	-291.128967	-25.432400	1407.476563	-226.405792	-148.694794	1103.519409	-304.032867	-183.741425	859.894043	-266.820465	381.058472	1404.104492	-214.018295	499.469727	1091.607178	-366.988739	508.686279	878.712097	-422.757385	88.443260	638.046448	-364.126221	307.901978	544.912109	-374.551331	120.060722	324.859711	-102.585716	272.868011	285.278015	-271.631714	151.696182	43.110710	-268.173920	80.847832	39.713589	85.181953	230.679504	242.302994	108.152397	300.396118	257.245728	-445.292999	80.514809	38.434521	-356.227936	157.465683	47.813099	-340.597260	56.663589	31.280590	53.559299	319.413666	90.371834	47.100281	244.263443	179.046066	95.083351	335.451141	183.427032
